<?xml version="1.0" standalone="no"?>
<!DOCTYPE svg PUBLIC "-//W3C//DTD SVG 20010904//EN"
 "http://www.w3.org/TR/2001/REC-SVG-20010904/DTD/svg10.dtd">
<svg version="1.0" xmlns="http://www.w3.org/2000/svg"
 width="86.000000pt" height="86.000000pt" viewBox="0 0 86.000000 86.000000"
 preserveAspectRatio="xMidYMid meet">
<metadata>
Created by potrace 1.11, written by Peter Selinger 2001-2013
</metadata>
<g transform="translate(0.000000,86.000000) scale(0.100000,-0.100000)"
fill="#000000" stroke="none">
<path d="M505 734 c-9 -14 -14 -28 -12 -31 3 -3 13 9 22 26 19 38 14 41 -10 5z"/>
<path d="M471 659 c-8 -23 -8 -30 1 -27 14 5 30 58 18 58 -4 0 -13 -14 -19
-31z"/>
<path d="M460 587 c0 -28 7 -37 24 -31 17 7 8 54 -10 54 -8 0 -14 -10 -14 -23z"/>
<path d="M796 595 c-9 -26 -7 -32 5 -12 6 10 9 21 6 23 -2 3 -7 -2 -11 -11z"/>
<path d="M758 540 c-10 -10 -13 -22 -9 -25 8 -5 20 6 35 33 11 19 -8 14 -26
-8z"/>
<path d="M477 544 c-7 -7 13 -54 23 -54 3 0 11 5 18 10 9 7 9 7 2 -2 -17 -20
-12 -28 25 -44 49 -20 75 -18 75 6 0 15 -7 20 -26 20 -16 0 -39 13 -61 35 -35
35 -45 40 -56 29z"/>
<path d="M706 497 c-28 -21 -16 -41 12 -22 22 16 30 35 14 35 -5 0 -16 -6 -26
-13z"/>
<path d="M310 481 c0 -13 9 -20 33 -24 17 -2 33 -4 33 -3 1 0 5 11 8 24 7 20
4 22 -33 22 -34 0 -41 -3 -41 -19z"/>
<path d="M396 477 c-10 -37 39 -62 64 -32 15 18 7 31 -29 43 -26 9 -30 8 -35
-11z"/>
<path d="M238 474 c-16 -8 -25 -20 -22 -28 8 -21 84 3 84 26 0 22 -25 23 -62
2z"/>
<path d="M633 465 c-7 -21 -2 -25 25 -18 12 3 22 12 22 19 0 19 -39 18 -47 -1z"/>
<path d="M168 430 c-28 -22 -88 -107 -88 -124 0 -15 49 46 50 61 0 6 8 14 18
18 9 3 28 15 41 26 34 28 14 47 -21 19z"/>
<path d="M466 432 c-15 -18 -15 -20 2 -35 22 -20 36 -21 50 -4 9 10 7 19 -4
35 -18 27 -26 27 -48 4z"/>
<path d="M517 377 c-24 -17 -14 -67 14 -67 20 0 25 28 11 63 -6 15 -10 16 -25
4z"/>
<path d="M526 288 c-12 -38 -13 -59 -4 -64 14 -9 28 15 28 49 0 27 -17 38 -24
15z"/>
<path d="M499 184 c-5 -15 -12 -31 -15 -35 -3 -5 -1 -9 5 -9 9 0 41 50 41 65
0 16 -22 1 -31 -21z"/>
<path d="M444 98 l-29 -33 33 29 c30 28 37 36 29 36 -2 0 -16 -15 -33 -32z"/>
</g>
</svg>
